<svg width="180" height="180" viewBox="0 0 180 180" fill="none" xmlns="http://www.w3.org/2000/svg">
<path d="M83.0342 48.7021C90.3535 37.7232 104.992 27.2013 114.142 29.2598C121.918 36.1217 119.402 50.7602 116.2 56.4785C116.149 56.4951 109.096 58.7725 105.449 60.5957C109.338 60.5957 113.226 58.9942 116.657 57.8506C118.484 67.8963 106.409 87.0576 106.364 87.1279C98.6793 86.7621 95.5377 88.6534 94.9277 89.6445C104.809 87.4487 107.889 89.3397 108.194 90.5596C107.503 90.7905 104.867 93.0762 102.602 96.9639C96.0716 108.171 92.1827 111.832 82.5762 118.087C79.9152 119.819 75.2646 121.888 70.6982 121.262C69.3279 129.961 68.6851 138.161 68.2715 145.725C68.2118 146.817 68.1584 148.148 67.626 149.181C67.3437 149.728 66.9236 150.206 66.3105 150.537C65.7072 150.863 64.9657 151.02 64.0781 151.021C63.1432 151.02 62.4444 150.615 61.9678 150.02C61.5163 149.455 61.2828 148.748 61.1572 148.12C61.0296 147.482 61 146.855 61 146.397C61 146.167 61.0078 145.973 61.0156 145.836C61.0195 145.768 61.0233 145.713 61.0264 145.674C61.0279 145.655 61.0293 145.639 61.0303 145.628C61.0308 145.623 61.0309 145.618 61.0312 145.614L61.0322 145.613C61.721 136.277 63.1706 127.327 65.1924 118.829C60.41 114.57 62.0678 106.352 62.4482 98.7939C62.5981 95.8166 62.6771 91.9319 63.5918 91.2451C64.5067 91.0164 67.7091 94.6768 70.6826 98.7939C70.4539 94.4481 65.8793 91.0166 64.5068 88.958C64.2786 87.1278 69.0801 75.4671 69.7676 75.2344C70.4527 75.006 75.471 78.4261 75.4863 78.4365C75.4863 78.4365 70.6832 72.2612 70.4541 69.9736C70.2254 67.6864 77.0869 56.2498 81.2041 51.4463L88.2949 59.2236L83.0342 48.7021ZM84.9619 72.7852C73.9998 92.1589 64.661 117.115 62.5518 145.739V145.749L62.5508 145.759C62.5507 145.76 62.5501 145.762 62.5498 145.765C62.5493 145.771 62.548 145.781 62.5469 145.795C62.5446 145.823 62.5423 145.867 62.5391 145.923C62.5326 146.036 62.5254 146.2 62.5254 146.397C62.5254 146.797 62.5523 147.315 62.6533 147.82C62.7565 148.336 62.9245 148.773 63.1592 149.066C63.3686 149.328 63.6415 149.495 64.0781 149.495C64.791 149.495 65.2646 149.367 65.585 149.194C65.8953 149.027 66.1102 148.79 66.2695 148.481C66.6204 147.801 66.6823 146.844 66.748 145.642C67.8678 125.167 70.6681 99.9606 84.9619 72.7852Z" fill="#656AE6"/>
</svg>
